<svg width="28" height="28" viewBox="0 0 28 28" fill="none" xmlns="http://www.w3.org/2000/svg">
<path fill-rule="evenodd" clip-rule="evenodd" d="M14.7804 15.8763C14.4028 16.2528 13.7918 16.2528 13.4142 15.8763L5.93067 8.39128C5.82702 8.28801 5.7906 8.13506 5.83657 7.99616C5.88254 7.85726 6.00303 7.75624 6.14782 7.7352C6.22176 7.7243 6.2964 7.71888 6.37115 7.71897H21.8265C21.9008 7.71895 21.9749 7.72438 22.0483 7.7352C22.1931 7.75624 22.3136 7.85726 22.3596 7.99616C22.4055 8.13506 22.3691 8.28801 22.2655 8.39128L14.7804 15.8763ZM23.1309 9.16478C23.1715 9.12414 23.2326 9.11221 23.2855 9.13464C23.338 9.15631 23.3722 9.20763 23.372 9.26447V18.5377C23.372 19.3913 22.6801 20.0832 21.8265 20.0832H6.3711C5.51752 20.0832 4.82556 19.3913 4.82556 18.5377V9.26447C4.82618 9.20825 4.86022 9.15781 4.91211 9.13619C4.96491 9.1133 5.02634 9.12528 5.06667 9.16633L9.85784 13.9575C9.93309 14.0332 9.93309 14.1554 9.85784 14.2311L5.96076 18.1281C5.74101 18.3554 5.74398 18.7169 5.96744 18.9406C6.19089 19.1643 6.55238 19.1676 6.7799 18.948L10.677 15.051C10.7526 14.9757 10.8749 14.9757 10.9505 15.051L12.5973 16.6946C13.4271 17.524 14.772 17.524 15.6018 16.6946L17.2471 15.0494C17.2833 15.0131 17.3325 14.9927 17.3838 14.9927C17.4352 14.9927 17.4844 15.0131 17.5206 15.0494L21.4177 18.9465C21.5633 19.0971 21.7788 19.1574 21.9814 19.1043C22.184 19.0511 22.3422 18.8928 22.3951 18.6902C22.4481 18.4875 22.3876 18.272 22.2368 18.1266L18.3398 14.2295C18.2645 14.1539 18.2645 14.0316 18.3398 13.956L23.1309 9.16478Z" fill="black"/>
<mask id="mask0_6_327" style="mask-type:alpha" maskUnits="userSpaceOnUse" x="4" y="7" width="20" height="14">
<path fill-rule="evenodd" clip-rule="evenodd" d="M14.7804 15.8763C14.4028 16.2528 13.7918 16.2528 13.4142 15.8763L5.93067 8.39128C5.82702 8.28801 5.7906 8.13506 5.83657 7.99616C5.88254 7.85726 6.00303 7.75624 6.14782 7.7352C6.22176 7.7243 6.2964 7.71888 6.37115 7.71897H21.8265C21.9008 7.71895 21.9749 7.72438 22.0483 7.7352C22.1931 7.75624 22.3136 7.85726 22.3596 7.99616C22.4055 8.13506 22.3691 8.28801 22.2655 8.39128L14.7804 15.8763ZM23.1309 9.16478C23.1715 9.12414 23.2326 9.11221 23.2855 9.13464C23.338 9.15631 23.3722 9.20763 23.372 9.26447V18.5377C23.372 19.3913 22.6801 20.0832 21.8265 20.0832H6.3711C5.51752 20.0832 4.82556 19.3913 4.82556 18.5377V9.26447C4.82618 9.20825 4.86022 9.15781 4.91211 9.13619C4.96491 9.1133 5.02634 9.12528 5.06667 9.16633L9.85784 13.9575C9.93309 14.0332 9.93309 14.1554 9.85784 14.2311L5.96076 18.1281C5.74101 18.3554 5.74398 18.7169 5.96744 18.9406C6.19089 19.1643 6.55238 19.1676 6.7799 18.948L10.677 15.051C10.7526 14.9757 10.8749 14.9757 10.9505 15.051L12.5973 16.6946C13.4271 17.524 14.772 17.524 15.6018 16.6946L17.2471 15.0494C17.2833 15.0131 17.3325 14.9927 17.3838 14.9927C17.4352 14.9927 17.4844 15.0131 17.5206 15.0494L21.4177 18.9465C21.5633 19.0971 21.7788 19.1574 21.9814 19.1043C22.184 19.0511 22.3422 18.8928 22.3951 18.6902C22.4481 18.4875 22.3876 18.272 22.2368 18.1266L18.3398 14.2295C18.2645 14.1539 18.2645 14.0316 18.3398 13.956L23.1309 9.16478Z" fill="white"/>
</mask>
<g mask="url(#mask0_6_327)">
</g>
</svg>
