<svg width="107" height="28" viewBox="0 0 107 28" fill="none" xmlns="http://www.w3.org/2000/svg">
<rect x="36.6281" y="4.62787" width="18.5465" height="18.5465" fill="black" fill-opacity="0.01"/>
<path fill-rule="evenodd" clip-rule="evenodd" d="M40.5836 10.6333H40.564C39.5826 10.6333 38.9463 9.99121 38.9463 9.17733C38.9463 8.34761 39.6014 7.71899 40.6024 7.71899C41.6026 7.71899 42.2177 8.34603 42.2373 9.17495C42.2373 9.98883 41.6026 10.6333 40.5836 10.6333ZM52.8563 20.0832H49.782V15.7367C49.782 14.599 49.3011 13.8224 48.2436 13.8224C47.4348 13.8224 46.985 14.3465 46.7757 14.8516C46.7065 15.0113 46.7077 15.2263 46.709 15.4479V15.4479C46.7092 15.4779 46.7094 15.508 46.7094 15.538V20.0832H43.6637C43.6637 20.0832 43.703 12.3838 43.6637 11.684H46.7094V13.0022C46.8893 12.4258 47.8626 11.6032 49.4156 11.6032C51.3424 11.6032 52.8563 12.8114 52.8563 15.4129V20.0832ZM42.0084 11.6838H39.2973V20.0831H42.0084V11.6838Z" fill="black"/>
<rect x="60.2269" y="4.62787" width="18.5465" height="18.5465" fill="black" fill-opacity="0.01"/>
<path fill-rule="evenodd" clip-rule="evenodd" d="M69.5001 6.94617C67.6112 6.94617 67.3744 6.95417 66.6326 6.98801C65.8923 7.02178 65.3866 7.13936 64.9444 7.3113C64.4871 7.48901 64.0992 7.72683 63.7124 8.11347C63.3259 8.50015 63.088 8.88801 62.9102 9.34535C62.7384 9.78773 62.6208 10.2933 62.5871 11.0336C62.5531 11.7754 62.5452 12.0122 62.5452 13.9011C62.5452 15.79 62.5531 16.0267 62.5871 16.7686C62.6208 17.5088 62.7384 18.0145 62.9102 18.4568C63.088 18.9142 63.3259 19.3021 63.7124 19.6887C64.0992 20.0754 64.4871 20.3131 64.9444 20.4909C65.3866 20.6628 65.8923 20.7804 66.6326 20.8141C67.3744 20.848 67.6112 20.856 69.5001 20.856C71.389 20.856 71.6257 20.848 72.3676 20.8141C73.1079 20.7804 73.6134 20.6628 74.0558 20.4909C74.5131 20.3131 74.901 20.0754 75.2877 19.6887C75.6743 19.3021 75.9122 18.9142 76.09 18.4568C76.2618 18.0145 76.3794 17.5088 76.4131 16.7686C76.4469 16.0267 76.455 15.79 76.455 13.9011C76.455 12.0122 76.4469 11.7754 76.4131 11.0336C76.3794 10.2933 76.2618 9.78773 76.09 9.34535C75.9122 8.88801 75.6743 8.50015 75.2877 8.11347C74.901 7.72683 74.5131 7.48901 74.0558 7.3113C73.6134 7.13936 73.1079 7.02178 72.3676 6.98801C71.6257 6.95417 71.389 6.94617 69.5001 6.94617ZM69.5002 8.19934C71.3572 8.19934 71.5772 8.20645 72.3105 8.2399C72.9886 8.27083 73.3569 8.38412 73.602 8.47937C73.9266 8.60554 74.1583 8.75625 74.4017 8.99964C74.6451 9.243 74.7958 9.47468 74.9219 9.79932C75.0172 10.0444 75.1305 10.4126 75.1614 11.0907C75.1948 11.8241 75.202 12.0441 75.202 13.9011C75.202 15.7582 75.1948 15.9781 75.1614 16.7116C75.1305 17.3896 75.0172 17.7579 74.9219 18.0029C74.7958 18.3276 74.6451 18.5592 74.4017 18.8026C74.1583 19.046 73.9266 19.1967 73.602 19.3229C73.3569 19.4182 72.9886 19.5315 72.3105 19.5624C71.5772 19.5958 71.3574 19.6029 69.5002 19.6029C67.643 19.6029 67.423 19.5958 66.6899 19.5624C66.0116 19.5315 65.6433 19.4182 65.3984 19.3229C65.0738 19.1967 64.8421 19.046 64.5987 18.8026C64.3553 18.5592 64.2046 18.3276 64.0784 18.0029C63.9831 17.7579 63.8699 17.3896 63.8389 16.7116C63.8056 15.9781 63.7984 15.7582 63.7984 13.9011C63.7984 12.0441 63.8056 11.8241 63.8389 11.0907C63.8699 10.4126 63.9831 10.0444 64.0784 9.79932C64.2046 9.47468 64.3553 9.243 64.5987 8.99964C64.8421 8.75625 65.0738 8.60554 65.3984 8.47937C65.6433 8.38412 66.0116 8.27083 66.6899 8.2399C67.4232 8.20645 67.6432 8.19934 69.5002 8.19934ZM69.5 10.3297C67.5275 10.3297 65.9286 11.9287 65.9286 13.9011C65.9286 15.8736 67.5275 17.4726 69.5 17.4726C71.4725 17.4726 73.0714 15.8736 73.0714 13.9011C73.0714 11.9287 71.4725 10.3297 69.5 10.3297ZM69.5001 16.2195C68.2196 16.2195 67.1818 15.1816 67.1818 13.9012C67.1818 12.6208 68.2196 11.5829 69.5001 11.5829C70.7803 11.5829 71.8184 12.6208 71.8184 13.9012C71.8184 15.1816 70.7803 16.2195 69.5001 16.2195ZM74.0474 10.1886C74.0474 10.6495 73.6738 11.0231 73.2129 11.0231C72.752 11.0231 72.3783 10.6495 72.3783 10.1886C72.3783 9.72764 72.752 9.35396 73.2129 9.35396C73.6738 9.35396 74.0474 9.72764 74.0474 10.1886Z" fill="black"/>
<path fill-rule="evenodd" clip-rule="evenodd" d="M93.7804 15.8763C93.4028 16.2528 92.7918 16.2528 92.4142 15.8763L84.9307 8.3913C84.827 8.28804 84.7906 8.13508 84.8366 7.99618C84.8825 7.85728 85.003 7.75627 85.1478 7.73522C85.2218 7.72433 85.2964 7.7189 85.3711 7.719H100.827C100.901 7.71898 100.975 7.7244 101.048 7.73522C101.193 7.75627 101.314 7.85728 101.36 7.99618C101.406 8.13508 101.369 8.28804 101.265 8.3913L93.7804 15.8763ZM102.131 9.16481C102.171 9.12416 102.233 9.11223 102.285 9.13467C102.338 9.15634 102.372 9.20765 102.372 9.26449V18.5377C102.372 19.3913 101.68 20.0833 100.826 20.0833H85.3711C84.5175 20.0833 83.8256 19.3913 83.8256 18.5377V9.26449C83.8262 9.20828 83.8602 9.15783 83.9121 9.13622C83.9649 9.11333 84.0263 9.12531 84.0667 9.16635L88.8578 13.9575C88.9331 14.0332 88.9331 14.1554 88.8578 14.2311L84.9608 18.1282C84.741 18.3555 84.744 18.717 84.9674 18.9406C85.1909 19.1643 85.5524 19.1676 85.7799 18.9481L89.677 15.051C89.7526 14.9757 89.8749 14.9757 89.9505 15.051L91.5973 16.6947C92.4271 17.524 93.772 17.524 94.6018 16.6947L96.2471 15.0494C96.2833 15.0131 96.3325 14.9927 96.3838 14.9927C96.4352 14.9927 96.4844 15.0131 96.5206 15.0494L100.418 18.9465C100.563 19.0971 100.779 19.1574 100.981 19.1043C101.184 19.0512 101.342 18.8928 101.395 18.6902C101.448 18.4875 101.388 18.2721 101.237 18.1266L97.3398 14.2295C97.2645 14.1539 97.2645 14.0316 97.3398 13.956L102.131 9.16481Z" fill="black"/>
<mask id="mask0_6_324" style="mask-type:alpha" maskUnits="userSpaceOnUse" x="83" y="7" width="20" height="14">
<path fill-rule="evenodd" clip-rule="evenodd" d="M93.7804 15.8763C93.4028 16.2528 92.7918 16.2528 92.4142 15.8763L84.9307 8.3913C84.827 8.28804 84.7906 8.13508 84.8366 7.99618C84.8825 7.85728 85.003 7.75627 85.1478 7.73522C85.2218 7.72433 85.2964 7.7189 85.3711 7.719H100.827C100.901 7.71898 100.975 7.7244 101.048 7.73522C101.193 7.75627 101.314 7.85728 101.36 7.99618C101.406 8.13508 101.369 8.28804 101.265 8.3913L93.7804 15.8763ZM102.131 9.16481C102.171 9.12416 102.233 9.11223 102.285 9.13467C102.338 9.15634 102.372 9.20765 102.372 9.26449V18.5377C102.372 19.3913 101.68 20.0833 100.826 20.0833H85.3711C84.5175 20.0833 83.8256 19.3913 83.8256 18.5377V9.26449C83.8262 9.20828 83.8602 9.15783 83.9121 9.13622C83.9649 9.11333 84.0263 9.12531 84.0667 9.16635L88.8578 13.9575C88.9331 14.0332 88.9331 14.1554 88.8578 14.2311L84.9608 18.1282C84.741 18.3555 84.744 18.717 84.9674 18.9406C85.1909 19.1643 85.5524 19.1676 85.7799 18.9481L89.677 15.051C89.7526 14.9757 89.8749 14.9757 89.9505 15.051L91.5973 16.6947C92.4271 17.524 93.772 17.524 94.6018 16.6947L96.2471 15.0494C96.2833 15.0131 96.3325 14.9927 96.3838 14.9927C96.4352 14.9927 96.4844 15.0131 96.5206 15.0494L100.418 18.9465C100.563 19.0971 100.779 19.1574 100.981 19.1043C101.184 19.0512 101.342 18.8928 101.395 18.6902C101.448 18.4875 101.388 18.2721 101.237 18.1266L97.3398 14.2295C97.2645 14.1539 97.2645 14.0316 97.3398 13.956L102.131 9.16481Z" fill="white"/>
</mask>
<g mask="url(#mask0_6_324)">
</g>
</svg>
