<svg width="29" height="28" viewBox="0 0 29 28" fill="none" xmlns="http://www.w3.org/2000/svg">
<rect x="5.22693" y="4.62787" width="18.5465" height="18.5465" fill="black" fill-opacity="0.01"/>
<path fill-rule="evenodd" clip-rule="evenodd" d="M14.5001 6.94617C12.6112 6.94617 12.3744 6.95417 11.6326 6.98801C10.8923 7.02178 10.3866 7.13936 9.94441 7.3113C9.48709 7.48901 9.0992 7.72683 8.71243 8.11347C8.32586 8.50015 8.08795 8.88801 7.91023 9.34535C7.73836 9.78773 7.62082 10.2933 7.58705 11.0336C7.55309 11.7754 7.54517 12.0122 7.54517 13.9011C7.54517 15.79 7.55309 16.0267 7.58705 16.7686C7.62082 17.5088 7.73836 18.0145 7.91023 18.4568C8.08795 18.9142 8.32586 19.3021 8.71243 19.6887C9.0992 20.0754 9.48709 20.3131 9.94441 20.4909C10.3866 20.6628 10.8923 20.7804 11.6326 20.8141C12.3744 20.848 12.6112 20.856 14.5001 20.856C16.389 20.856 16.6257 20.848 17.3676 20.8141C18.1079 20.7804 18.6134 20.6628 19.0558 20.4909C19.5131 20.3131 19.901 20.0754 20.2877 19.6887C20.6743 19.3021 20.9122 18.9142 21.09 18.4568C21.2618 18.0145 21.3794 17.5088 21.4131 16.7686C21.4469 16.0267 21.455 15.79 21.455 13.9011C21.455 12.0122 21.4469 11.7754 21.4131 11.0336C21.3794 10.2933 21.2618 9.78773 21.09 9.34535C20.9122 8.88801 20.6743 8.50015 20.2877 8.11347C19.901 7.72683 19.5131 7.48901 19.0558 7.3113C18.6134 7.13936 18.1079 7.02178 17.3676 6.98801C16.6257 6.95417 16.389 6.94617 14.5001 6.94617ZM14.5002 8.19934C16.3572 8.19934 16.5772 8.20645 17.3105 8.2399C17.9886 8.27083 18.3569 8.38412 18.602 8.47937C18.9266 8.60554 19.1583 8.75625 19.4017 8.99964C19.6451 9.243 19.7958 9.47468 19.9219 9.79932C20.0172 10.0444 20.1305 10.4126 20.1614 11.0907C20.1948 11.8241 20.202 12.0441 20.202 13.9011C20.202 15.7582 20.1948 15.9781 20.1614 16.7116C20.1305 17.3896 20.0172 17.7579 19.9219 18.0029C19.7958 18.3276 19.6451 18.5592 19.4017 18.8026C19.1583 19.046 18.9266 19.1967 18.602 19.3229C18.3569 19.4182 17.9886 19.5315 17.3105 19.5624C16.5772 19.5958 16.3574 19.6029 14.5002 19.6029C12.643 19.6029 12.423 19.5958 11.6899 19.5624C11.0116 19.5315 10.6433 19.4182 10.3984 19.3229C10.0738 19.1967 9.84207 19.046 9.5987 18.8026C9.35532 18.5592 9.20458 18.3276 9.07836 18.0029C8.98309 17.7579 8.86988 17.3896 8.83894 16.7116C8.80555 15.9781 8.79838 15.7582 8.79838 13.9011C8.79838 12.0441 8.80555 11.8241 8.83894 11.0907C8.86988 10.4126 8.98309 10.0444 9.07836 9.79932C9.20458 9.47468 9.35532 9.243 9.5987 8.99964C9.84207 8.75625 10.0738 8.60554 10.3984 8.47937C10.6433 8.38412 11.0116 8.27083 11.6899 8.2399C12.4232 8.20645 12.6432 8.19934 14.5002 8.19934ZM14.5 10.3297C12.5275 10.3297 10.9286 11.9287 10.9286 13.9011C10.9286 15.8736 12.5275 17.4726 14.5 17.4726C16.4725 17.4726 18.0714 15.8736 18.0714 13.9011C18.0714 11.9287 16.4725 10.3297 14.5 10.3297ZM14.5001 16.2195C13.2196 16.2195 12.1818 15.1816 12.1818 13.9012C12.1818 12.6208 13.2196 11.5829 14.5001 11.5829C15.7803 11.5829 16.8184 12.6208 16.8184 13.9012C16.8184 15.1816 15.7803 16.2195 14.5001 16.2195ZM19.0474 10.1886C19.0474 10.6495 18.6738 11.0231 18.2129 11.0231C17.752 11.0231 17.3783 10.6495 17.3783 10.1886C17.3783 9.72764 17.752 9.35396 18.2129 9.35396C18.6738 9.35396 19.0474 9.72764 19.0474 10.1886Z" fill="black"/>
</svg>
