<svg width="28" height="28" viewBox="0 0 28 28" fill="none" xmlns="http://www.w3.org/2000/svg">
<rect x="4.62805" y="4.62787" width="18.5465" height="18.5465" fill="black" fill-opacity="0.01"/>
<path fill-rule="evenodd" clip-rule="evenodd" d="M8.58361 10.6333H8.56398C7.58257 10.6333 6.94629 9.99121 6.94629 9.17733C6.94629 8.34761 7.60138 7.71899 8.60242 7.71899C9.60264 7.71899 10.2177 8.34603 10.2373 9.17495C10.2373 9.98883 9.60264 10.6333 8.58361 10.6333ZM20.8563 20.0832H17.782V15.7367C17.782 14.599 17.3011 13.8224 16.2436 13.8224C15.4348 13.8224 14.985 14.3465 14.7757 14.8516C14.7065 15.0113 14.7077 15.2263 14.709 15.4479V15.4479C14.7092 15.4779 14.7094 15.508 14.7094 15.538V20.0832H11.6637C11.6637 20.0832 11.703 12.3838 11.6637 11.684H14.7094V13.0022C14.8893 12.4258 15.8626 11.6032 17.4156 11.6032C19.3424 11.6032 20.8563 12.8114 20.8563 15.4129V20.0832ZM10.0084 11.6838H7.29727V20.0831H10.0084V11.6838Z" fill="black"/>
</svg>
