<svg width="230" height="28" viewBox="0 0 230 28" fill="none" xmlns="http://www.w3.org/2000/svg">
<path fill-rule="evenodd" clip-rule="evenodd" d="M20.1734 7.21704C19.6939 6.25577 18.7811 5.58398 17.7207 5.41196C16.6603 5.23993 15.582 5.58869 14.8231 6.34907L14.1636 7.00858C14.0188 7.15338 13.784 7.15338 13.6391 7.00858L12.9789 6.34907C11.6743 5.04453 9.55927 5.04453 8.25473 6.34907C6.95019 7.6536 6.95019 9.76868 8.25473 11.0732L13.2178 16.2507C13.3963 16.4368 13.6431 16.5421 13.901 16.5421C14.159 16.5421 14.4057 16.4368 14.5843 16.2507L19.5473 11.0732C20.5649 10.0569 20.8171 8.50311 20.1734 7.21704ZM8.0582 17.1179C7.61417 17.4143 7.46725 17.9992 7.71843 18.4703L8.70807 20.115C8.81378 20.2905 8.75715 20.5186 8.58159 20.6243C8.40602 20.73 8.17801 20.6733 8.0723 20.4978L7.06931 18.8286C6.76617 18.2422 6.80158 17.5381 7.16204 16.9851C7.20248 16.9244 7.22415 16.8532 7.22436 16.7803V14.643C7.22436 14.0285 6.72614 13.5302 6.11157 13.5302C5.49699 13.5302 4.99878 14.0285 4.99878 14.643V18.4792C4.99861 19.2374 5.25659 19.9732 5.73025 20.5653L7.70656 23.0349C7.77683 23.1229 7.88328 23.1742 7.99589 23.1744H10.9336C11.1385 23.1744 11.3046 23.0083 11.3046 22.8035V20.5705C11.3052 19.9103 11.1098 19.2648 10.743 18.7158C10.5482 18.513 10.3721 18.3248 10.2109 18.1525L10.2109 18.1524C9.21338 17.0864 8.78753 16.6312 8.0582 17.1179ZM20.5779 14.643C20.5779 14.0285 21.0761 13.5302 21.6907 13.5302C22.3053 13.5302 22.8035 14.0285 22.8035 14.643V18.4792C22.8036 19.2374 22.5457 19.9732 22.072 20.5653L20.0957 23.0349C20.0254 23.1229 19.919 23.1742 19.8064 23.1744H16.8686C16.6637 23.1744 16.4977 23.0083 16.4977 22.8035V20.5727C16.497 19.9125 16.6925 19.267 17.0593 18.7181C17.2535 18.5155 17.4291 18.3275 17.59 18.1554C18.5885 17.0868 19.0144 16.631 19.744 17.1179C20.1881 17.4143 20.335 17.9992 20.0838 18.4703L19.0942 20.115C19.0258 20.2285 19.0232 20.37 19.0874 20.486C19.1515 20.602 19.2727 20.6749 19.4053 20.6774C19.5378 20.6798 19.6616 20.6113 19.7299 20.4978L20.7329 18.8286C21.0361 18.2422 21.0007 17.5381 20.6402 16.9851C20.5998 16.9244 20.5781 16.8532 20.5779 16.7803V14.643Z" fill="black"/>
<mask id="mask0_6_316" style="mask-type:alpha" maskUnits="userSpaceOnUse" x="4" y="5" width="19" height="19">
<path fill-rule="evenodd" clip-rule="evenodd" d="M20.1734 7.21704C19.6939 6.25577 18.7811 5.58398 17.7207 5.41196C16.6603 5.23993 15.582 5.58869 14.8231 6.34907L14.1636 7.00858C14.0188 7.15338 13.784 7.15338 13.6391 7.00858L12.9789 6.34907C11.6743 5.04453 9.55927 5.04453 8.25473 6.34907C6.95019 7.6536 6.95019 9.76868 8.25473 11.0732L13.2178 16.2507C13.3963 16.4368 13.6431 16.5421 13.901 16.5421C14.159 16.5421 14.4057 16.4368 14.5843 16.2507L19.5473 11.0732C20.5649 10.0569 20.8171 8.50311 20.1734 7.21704ZM8.0582 17.1179C7.61417 17.4143 7.46725 17.9992 7.71843 18.4703L8.70807 20.115C8.81378 20.2905 8.75715 20.5186 8.58159 20.6243C8.40602 20.73 8.17801 20.6733 8.0723 20.4978L7.06931 18.8286C6.76617 18.2422 6.80158 17.5381 7.16204 16.9851C7.20248 16.9244 7.22415 16.8532 7.22436 16.7803V14.643C7.22436 14.0285 6.72614 13.5302 6.11157 13.5302C5.49699 13.5302 4.99878 14.0285 4.99878 14.643V18.4792C4.99861 19.2374 5.25659 19.9732 5.73025 20.5653L7.70656 23.0349C7.77683 23.1229 7.88328 23.1742 7.99589 23.1744H10.9336C11.1385 23.1744 11.3046 23.0083 11.3046 22.8035V20.5705C11.3052 19.9103 11.1098 19.2648 10.743 18.7158C10.5482 18.513 10.3721 18.3248 10.2109 18.1525L10.2109 18.1524C9.21338 17.0864 8.78753 16.6312 8.0582 17.1179ZM20.5779 14.643C20.5779 14.0285 21.0761 13.5302 21.6907 13.5302C22.3053 13.5302 22.8035 14.0285 22.8035 14.643V18.4792C22.8036 19.2374 22.5457 19.9732 22.072 20.5653L20.0957 23.0349C20.0254 23.1229 19.919 23.1742 19.8064 23.1744H16.8686C16.6637 23.1744 16.4977 23.0083 16.4977 22.8035V20.5727C16.497 19.9125 16.6925 19.267 17.0593 18.7181C17.2535 18.5155 17.4291 18.3275 17.59 18.1554C18.5885 17.0868 19.0144 16.631 19.744 17.1179C20.1881 17.4143 20.335 17.9992 20.0838 18.4703L19.0942 20.115C19.0258 20.2285 19.0232 20.37 19.0874 20.486C19.1515 20.602 19.2727 20.6749 19.4053 20.6774C19.5378 20.6798 19.6616 20.6113 19.7299 20.4978L20.7329 18.8286C21.0361 18.2422 21.0007 17.5381 20.6402 16.9851C20.5998 16.9244 20.5781 16.8532 20.5779 16.7803V14.643Z" fill="white"/>
</mask>
<g mask="url(#mask0_6_316)">
</g>
<path d="M37.7554 20.9012H36.3633L41.6545 6.35573H43.075L48.3662 20.9012H46.9741L42.4145 8.08158H42.315L37.7554 20.9012ZM38.7568 15.3259H45.9727V16.5191H38.7568V15.3259ZM50.7277 20.9012V9.99209H51.999V20.9012H50.7277ZM51.374 8.11709C51.1136 8.11709 50.891 8.0295 50.7064 7.85431C50.5217 7.67438 50.4294 7.45895 50.4294 7.208C50.4294 6.95705 50.5217 6.74399 50.7064 6.5688C50.891 6.38887 51.1136 6.29891 51.374 6.29891C51.6344 6.29891 51.8569 6.38887 52.0416 6.5688C52.2263 6.74399 52.3186 6.95705 52.3186 7.208C52.3186 7.45895 52.2263 7.67438 52.0416 7.85431C51.8569 8.0295 51.6344 8.11709 51.374 8.11709ZM56.6066 14.083V20.9012H55.3424V9.99209H56.5711V11.7037H56.6847C56.9404 11.145 57.3381 10.6976 57.8779 10.3614C58.4224 10.0205 59.0947 9.85005 59.8949 9.85005C60.6288 9.85005 61.2728 10.0039 61.8267 10.3117C62.3855 10.6147 62.8187 11.0622 63.1265 11.654C63.439 12.2459 63.5952 12.9727 63.5952 13.8344V20.9012H62.331V13.9125C62.331 13.0177 62.0801 12.3098 61.5782 11.789C61.081 11.2681 60.4134 11.0077 59.5753 11.0077C59.0024 11.0077 58.4934 11.1308 58.0483 11.377C57.6033 11.6232 57.2505 11.9784 56.9901 12.4424C56.7344 12.9017 56.6066 13.4485 56.6066 14.083ZM68.1886 14.083V20.9012H66.9244V6.35573H68.1886V11.7037H68.3022C68.5579 11.1403 68.9533 10.6905 69.4883 10.3543C70.0281 10.0181 70.7099 9.85005 71.5338 9.85005C72.2724 9.85005 72.9211 10.0016 73.4798 10.3046C74.0385 10.6076 74.4741 11.0551 74.7866 11.6469C75.0991 12.2388 75.2554 12.9679 75.2554 13.8344V20.9012H73.9841V13.9125C73.9841 13.0129 73.7331 12.3051 73.2312 11.789C72.7341 11.2681 72.0617 11.0077 71.2142 11.0077C70.6318 11.0077 70.1133 11.1308 69.6588 11.377C69.2042 11.6232 68.8444 11.9784 68.5792 12.4424C68.3188 12.9017 68.1886 13.4485 68.1886 14.083ZM82.8246 21.1285C81.8824 21.1285 81.0491 20.8893 80.3246 20.4111C79.6049 19.9329 79.0415 19.2724 78.6343 18.4296C78.2271 17.5821 78.0235 16.6043 78.0235 15.4964C78.0235 14.3789 78.2271 13.3964 78.6343 12.5489C79.0415 11.6966 79.6049 11.0338 80.3246 10.5603C81.0491 10.0821 81.8824 9.84295 82.8246 9.84295C83.7669 9.84295 84.5978 10.0821 85.3175 10.5603C86.0372 11.0385 86.6007 11.7014 87.0079 12.5489C87.4198 13.3964 87.6258 14.3789 87.6258 15.4964C87.6258 16.6043 87.4222 17.5821 87.015 18.4296C86.6078 19.2724 86.0419 19.9329 85.3175 20.4111C84.5978 20.8893 83.7669 21.1285 82.8246 21.1285ZM82.8246 19.9708C83.5822 19.9708 84.2238 19.7672 84.7493 19.36C85.2749 18.9528 85.6726 18.4107 85.9425 17.7336C86.2171 17.0565 86.3544 16.3107 86.3544 15.4964C86.3544 14.682 86.2171 13.9339 85.9425 13.252C85.6726 12.5702 85.2749 12.0233 84.7493 11.6114C84.2238 11.1995 83.5822 10.9935 82.8246 10.9935C82.0718 10.9935 81.4302 11.1995 80.8999 11.6114C80.3743 12.0233 79.9742 12.5702 79.6996 13.252C79.4297 13.9339 79.2948 14.682 79.2948 15.4964C79.2948 16.3107 79.4297 17.0565 79.6996 17.7336C79.9742 18.4107 80.3743 18.9528 80.8999 19.36C81.4255 19.7672 82.067 19.9708 82.8246 19.9708ZM93.4478 21.1498C92.7897 21.1498 92.1884 21.0219 91.6439 20.7662C91.0994 20.5058 90.6661 20.1318 90.3441 19.6441C90.0222 19.1517 89.8612 18.5551 89.8612 17.8543C89.8612 17.3145 89.963 16.86 90.1666 16.4907C90.3702 16.1214 90.659 15.8183 91.0331 15.5816C91.4071 15.3448 91.8498 15.1578 92.3612 15.0205C92.8726 14.8832 93.436 14.7767 94.0515 14.7009C94.6623 14.6251 95.1784 14.5589 95.5998 14.502C96.026 14.4452 96.3503 14.3553 96.5728 14.2321C96.7954 14.109 96.9066 13.9102 96.9066 13.6356V13.3799C96.9066 12.6365 96.6841 12.0518 96.239 11.6256C95.7987 11.1947 95.1642 10.9793 94.3356 10.9793C93.5496 10.9793 92.9081 11.1521 92.4109 11.4978C91.9185 11.8434 91.5728 12.2506 91.374 12.7194L90.1737 12.2861C90.4199 11.6895 90.7608 11.2137 91.1964 10.8586C91.632 10.4987 92.1197 10.2407 92.6595 10.0844C93.1993 9.92344 93.7461 9.84295 94.3001 9.84295C94.7168 9.84295 95.15 9.8974 95.5998 10.0063C96.0544 10.1152 96.4758 10.3046 96.864 10.5745C97.2523 10.8396 97.5672 11.2113 97.8086 11.6895C98.0501 12.163 98.1709 12.7643 98.1709 13.4935V20.9012H96.9066V19.1753H96.8285C96.677 19.4973 96.4521 19.8098 96.1538 20.1128C95.8555 20.4159 95.4815 20.6644 95.0316 20.8586C94.5818 21.0527 94.0539 21.1498 93.4478 21.1498ZM93.6183 19.9921C94.2906 19.9921 94.873 19.8429 95.3655 19.5447C95.8579 19.2464 96.2367 18.851 96.5018 18.3586C96.7717 17.8614 96.9066 17.3145 96.9066 16.7179V15.1412C96.812 15.2312 96.6533 15.3117 96.4308 15.3827C96.213 15.4537 95.9597 15.5177 95.6709 15.5745C95.3868 15.6266 95.1027 15.6715 94.8186 15.7094C94.5345 15.7473 94.2788 15.7804 94.0515 15.8089C93.436 15.8846 92.9104 16.003 92.4748 16.164C92.0392 16.325 91.7054 16.5475 91.4734 16.8316C91.2414 17.1109 91.1254 17.4708 91.1254 17.9111C91.1254 18.574 91.3621 19.0877 91.8356 19.4523C92.3091 19.8122 92.9033 19.9921 93.6183 19.9921ZM107.422 20.9012V6.35573H112.329C113.276 6.35573 114.065 6.52145 114.694 6.85289C115.329 7.18433 115.805 7.63651 116.122 8.20942C116.439 8.78234 116.598 9.43338 116.598 10.1625C116.598 10.7686 116.496 11.2871 116.292 11.7179C116.089 12.1488 115.812 12.4968 115.461 12.762C115.111 13.0271 114.72 13.2189 114.289 13.3373V13.4509C114.758 13.484 115.213 13.6498 115.653 13.9481C116.093 14.2416 116.456 14.6536 116.74 15.1839C117.024 15.7142 117.166 16.3486 117.166 17.0873C117.166 17.8212 117.003 18.4769 116.676 19.0546C116.349 19.6275 115.847 20.0797 115.17 20.4111C114.498 20.7378 113.641 20.9012 112.599 20.9012H107.422ZM108.75 19.708H112.599C113.721 19.708 114.55 19.4594 115.085 18.9623C115.625 18.4651 115.895 17.8401 115.895 17.0873C115.895 16.5333 115.76 16.0314 115.49 15.5816C115.225 15.127 114.848 14.7672 114.36 14.502C113.878 14.2369 113.309 14.1043 112.656 14.1043H108.75V19.708ZM108.75 12.9253H112.45C113.023 12.9253 113.525 12.807 113.956 12.5702C114.387 12.3335 114.723 12.0068 114.964 11.5901C115.206 11.1734 115.326 10.6976 115.326 10.1625C115.326 9.39077 115.075 8.7634 114.574 8.28045C114.072 7.79276 113.324 7.54891 112.329 7.54891H108.75V12.9253ZM121.372 6.35573V20.9012H120.108V6.35573H121.372ZM127.764 21.1498C127.106 21.1498 126.505 21.0219 125.96 20.7662C125.416 20.5058 124.983 20.1318 124.661 19.6441C124.339 19.1517 124.178 18.5551 124.178 17.8543C124.178 17.3145 124.279 16.86 124.483 16.4907C124.687 16.1214 124.975 15.8183 125.349 15.5816C125.724 15.3448 126.166 15.1578 126.678 15.0205C127.189 14.8832 127.752 14.7767 128.368 14.7009C128.979 14.6251 129.495 14.5589 129.916 14.502C130.342 14.4452 130.667 14.3553 130.889 14.2321C131.112 14.109 131.223 13.9102 131.223 13.6356V13.3799C131.223 12.6365 131.001 12.0518 130.555 11.6256C130.115 11.1947 129.481 10.9793 128.652 10.9793C127.866 10.9793 127.224 11.1521 126.727 11.4978C126.235 11.8434 125.889 12.2506 125.69 12.7194L124.49 12.2861C124.736 11.6895 125.077 11.2137 125.513 10.8586C125.948 10.4987 126.436 10.2407 126.976 10.0844C127.516 9.92344 128.063 9.84295 128.617 9.84295C129.033 9.84295 129.466 9.8974 129.916 10.0063C130.371 10.1152 130.792 10.3046 131.18 10.5745C131.569 10.8396 131.884 11.2113 132.125 11.6895C132.367 12.163 132.487 12.7643 132.487 13.4935V20.9012H131.223V19.1753H131.145C130.993 19.4973 130.769 19.8098 130.47 20.1128C130.172 20.4159 129.798 20.6644 129.348 20.8586C128.898 21.0527 128.37 21.1498 127.764 21.1498ZM127.935 19.9921C128.607 19.9921 129.189 19.8429 129.682 19.5447C130.174 19.2464 130.553 18.851 130.818 18.3586C131.088 17.8614 131.223 17.3145 131.223 16.7179V15.1412C131.128 15.2312 130.97 15.3117 130.747 15.3827C130.529 15.4537 130.276 15.5177 129.987 15.5745C129.703 15.6266 129.419 15.6715 129.135 15.7094C128.851 15.7473 128.595 15.7804 128.368 15.8089C127.752 15.8846 127.227 16.003 126.791 16.164C126.356 16.325 126.022 16.5475 125.79 16.8316C125.558 17.1109 125.442 17.4708 125.442 17.9111C125.442 18.574 125.679 19.0877 126.152 19.4523C126.626 19.8122 127.22 19.9921 127.935 19.9921ZM137.114 14.083V20.9012H135.85V9.99209H137.079V11.7037H137.193C137.448 11.145 137.846 10.6976 138.386 10.3614C138.93 10.0205 139.603 9.85005 140.403 9.85005C141.137 9.85005 141.781 10.0039 142.335 10.3117C142.893 10.6147 143.327 11.0622 143.634 11.654C143.947 12.2459 144.103 12.9727 144.103 13.8344V20.9012H142.839V13.9125C142.839 13.0177 142.588 12.3098 142.086 11.789C141.589 11.2681 140.921 11.0077 140.083 11.0077C139.51 11.0077 139.001 11.1308 138.556 11.377C138.111 11.6232 137.758 11.9784 137.498 12.4424C137.242 12.9017 137.114 13.4485 137.114 14.083ZM151.694 21.1285C150.718 21.1285 149.868 20.8846 149.144 20.3969C148.424 19.9092 147.865 19.2416 147.468 18.3941C147.07 17.5465 146.871 16.5806 146.871 15.4964C146.871 14.4026 147.072 13.4296 147.475 12.5773C147.882 11.725 148.445 11.0574 149.165 10.5745C149.885 10.0868 150.721 9.84295 151.672 9.84295C152.401 9.84295 153.062 9.98499 153.654 10.2691C154.246 10.5484 154.733 10.9438 155.117 11.4552C155.505 11.9618 155.749 12.5536 155.848 13.2307H154.57C154.437 12.6152 154.118 12.0896 153.611 11.654C153.109 11.2137 152.47 10.9935 151.694 10.9935C150.998 10.9935 150.382 11.1829 149.847 11.5617C149.312 11.9357 148.893 12.4589 148.59 13.1313C148.292 13.7989 148.142 14.5731 148.142 15.4537C148.142 16.3392 148.289 17.1228 148.583 17.8046C148.876 18.4817 149.288 19.012 149.819 19.3955C150.354 19.779 150.979 19.9708 151.694 19.9708C152.177 19.9708 152.617 19.8808 153.015 19.7009C153.417 19.5162 153.753 19.2558 154.023 18.9196C154.298 18.5835 154.482 18.1834 154.577 17.7194H155.856C155.761 18.3775 155.526 18.9646 155.152 19.4807C154.783 19.9921 154.302 20.3946 153.711 20.6881C153.124 20.9817 152.451 21.1285 151.694 21.1285ZM162.805 21.1285C161.863 21.1285 161.03 20.8893 160.305 20.4111C159.585 19.9329 159.022 19.2724 158.615 18.4296C158.208 17.5821 158.004 16.6043 158.004 15.4964C158.004 14.3789 158.208 13.3964 158.615 12.5489C159.022 11.6966 159.585 11.0338 160.305 10.5603C161.03 10.0821 161.863 9.84295 162.805 9.84295C163.747 9.84295 164.578 10.0821 165.298 10.5603C166.018 11.0385 166.581 11.7014 166.988 12.5489C167.4 13.3964 167.606 14.3789 167.606 15.4964C167.606 16.6043 167.403 17.5821 166.995 18.4296C166.588 19.2724 166.022 19.9329 165.298 20.4111C164.578 20.8893 163.747 21.1285 162.805 21.1285ZM162.805 19.9708C163.563 19.9708 164.204 19.7672 164.73 19.36C165.255 18.9528 165.653 18.4107 165.923 17.7336C166.198 17.0565 166.335 16.3107 166.335 15.4964C166.335 14.682 166.198 13.9339 165.923 13.252C165.653 12.5702 165.255 12.0233 164.73 11.6114C164.204 11.1995 163.563 10.9935 162.805 10.9935C162.052 10.9935 161.411 11.1995 160.88 11.6114C160.355 12.0233 159.955 12.5702 159.68 13.252C159.41 13.9339 159.275 14.682 159.275 15.4964C159.275 16.3107 159.41 17.0565 159.68 17.7336C159.955 18.4107 160.355 18.9528 160.88 19.36C161.406 19.7672 162.048 19.9708 162.805 19.9708ZM180.531 20.9012H176.269V6.35573H180.786C182.174 6.35573 183.36 6.64455 184.345 7.22221C185.334 7.79986 186.092 8.62846 186.617 9.708C187.143 10.7875 187.406 12.0825 187.406 13.5929C187.406 15.1176 187.136 16.4268 186.596 17.5205C186.061 18.6095 185.28 19.4452 184.252 20.0276C183.229 20.61 181.989 20.9012 180.531 20.9012ZM177.597 19.708H180.452C181.702 19.708 182.749 19.4618 183.592 18.9694C184.434 18.4769 185.067 17.7738 185.488 16.86C185.909 15.9462 186.12 14.8571 186.12 13.5929C186.115 12.3382 185.907 11.2587 185.495 10.3543C185.088 9.44995 184.482 8.7563 183.677 8.27334C182.877 7.79039 181.887 7.54891 180.708 7.54891H177.597V19.708ZM197.294 16.7321V9.99209H198.558V20.9012H197.294V19.0901H197.194C196.939 19.6488 196.534 20.1152 195.98 20.4893C195.426 20.8586 194.749 21.0432 193.949 21.0432C193.253 21.0432 192.635 20.8917 192.095 20.5887C191.555 20.2809 191.131 19.8311 190.824 19.2393C190.516 18.6474 190.362 17.9206 190.362 17.0589V9.99209H191.626V16.9807C191.626 17.833 191.877 18.5196 192.379 19.0404C192.881 19.5565 193.525 19.8145 194.311 19.8145C194.803 19.8145 195.277 19.6962 195.731 19.4594C196.186 19.2227 196.56 18.877 196.853 18.4225C197.147 17.9632 197.294 17.3998 197.294 16.7321ZM193.878 8.47931L195.696 5.25488H197.194L195.014 8.47931H193.878ZM206.166 21.1285C205.191 21.1285 204.341 20.8846 203.617 20.3969C202.897 19.9092 202.338 19.2416 201.94 18.3941C201.543 17.5465 201.344 16.5806 201.344 15.4964C201.344 14.4026 201.545 13.4296 201.947 12.5773C202.355 11.725 202.918 11.0574 203.638 10.5745C204.358 10.0868 205.193 9.84295 206.145 9.84295C206.874 9.84295 207.535 9.98499 208.126 10.2691C208.718 10.5484 209.206 10.9438 209.59 11.4552C209.978 11.9618 210.222 12.5536 210.321 13.2307H209.043C208.91 12.6152 208.59 12.0896 208.084 11.654C207.582 11.2137 206.943 10.9935 206.166 10.9935C205.47 10.9935 204.855 11.1829 204.32 11.5617C203.785 11.9357 203.366 12.4589 203.063 13.1313C202.764 13.7989 202.615 14.5731 202.615 15.4537C202.615 16.3392 202.762 17.1228 203.055 17.8046C203.349 18.4817 203.761 19.012 204.291 19.3955C204.826 19.779 205.451 19.9708 206.166 19.9708C206.649 19.9708 207.09 19.8808 207.487 19.7009C207.89 19.5162 208.226 19.2558 208.496 18.9196C208.77 18.5835 208.955 18.1834 209.05 17.7194H210.328C210.233 18.3775 209.999 18.9646 209.625 19.4807C209.256 19.9921 208.775 20.3946 208.183 20.6881C207.596 20.9817 206.924 21.1285 206.166 21.1285ZM216.085 21.1498C215.426 21.1498 214.825 21.0219 214.281 20.7662C213.736 20.5058 213.303 20.1318 212.981 19.6441C212.659 19.1517 212.498 18.5551 212.498 17.8543C212.498 17.3145 212.6 16.86 212.803 16.4907C213.007 16.1214 213.296 15.8183 213.67 15.5816C214.044 15.3448 214.487 15.1578 214.998 15.0205C215.509 14.8832 216.073 14.7767 216.688 14.7009C217.299 14.6251 217.815 14.5589 218.237 14.502C218.663 14.4452 218.987 14.3553 219.21 14.2321C219.432 14.109 219.543 13.9102 219.543 13.6356V13.3799C219.543 12.6365 219.321 12.0518 218.876 11.6256C218.435 11.1947 217.801 10.9793 216.972 10.9793C216.186 10.9793 215.545 11.1521 215.048 11.4978C214.555 11.8434 214.21 12.2506 214.011 12.7194L212.81 12.2861C213.057 11.6895 213.398 11.2137 213.833 10.8586C214.269 10.4987 214.756 10.2407 215.296 10.0844C215.836 9.92344 216.383 9.84295 216.937 9.84295C217.354 9.84295 217.787 9.8974 218.237 10.0063C218.691 10.1152 219.112 10.3046 219.501 10.5745C219.889 10.8396 220.204 11.2113 220.445 11.6895C220.687 12.163 220.808 12.7643 220.808 13.4935V20.9012H219.543V19.1753H219.465C219.314 19.4973 219.089 19.8098 218.791 20.1128C218.492 20.4159 218.118 20.6644 217.668 20.8586C217.219 21.0527 216.691 21.1498 216.085 21.1498ZM216.255 19.9921C216.927 19.9921 217.51 19.8429 218.002 19.5447C218.495 19.2464 218.873 18.851 219.139 18.3586C219.408 17.8614 219.543 17.3145 219.543 16.7179V15.1412C219.449 15.2312 219.29 15.3117 219.068 15.3827C218.85 15.4537 218.596 15.5177 218.308 15.5745C218.023 15.6266 217.739 15.6715 217.455 15.7094C217.171 15.7473 216.916 15.7804 216.688 15.8089C216.073 15.8846 215.547 16.003 215.112 16.164C214.676 16.325 214.342 16.5475 214.11 16.8316C213.878 17.1109 213.762 17.4708 213.762 17.9111C213.762 18.574 213.999 19.0877 214.472 19.4523C214.946 19.8122 215.54 19.9921 216.255 19.9921ZM224.17 20.9012V9.99209H225.399V11.6682H225.492C225.709 11.119 226.088 10.6763 226.628 10.3401C227.172 9.99919 227.788 9.82874 228.474 9.82874C228.579 9.82874 228.695 9.83111 228.822 9.83584C228.95 9.84058 229.057 9.84531 229.142 9.85005V11.1356C229.085 11.1261 228.986 11.1119 228.844 11.0929C228.702 11.074 228.548 11.0645 228.382 11.0645C227.814 11.0645 227.307 11.1853 226.862 11.4268C226.422 11.6635 226.074 11.9926 225.818 12.414C225.563 12.8354 225.435 13.316 225.435 13.8557V20.9012H224.17Z" fill="#404040"/>
</svg>
