<svg width="28" height="28" viewBox="0 0 28 28" fill="none" xmlns="http://www.w3.org/2000/svg">
<path fill-rule="evenodd" clip-rule="evenodd" d="M20.1734 7.21704C19.6939 6.25577 18.7811 5.58398 17.7207 5.41196C16.6603 5.23993 15.582 5.58869 14.8231 6.34907L14.1636 7.00858C14.0188 7.15338 13.784 7.15338 13.6391 7.00858L12.9789 6.34907C11.6743 5.04453 9.55927 5.04453 8.25473 6.34907C6.95019 7.6536 6.95019 9.76868 8.25473 11.0732L13.2178 16.2507C13.3963 16.4368 13.6431 16.5421 13.901 16.5421C14.159 16.5421 14.4057 16.4368 14.5843 16.2507L19.5473 11.0732C20.5649 10.0569 20.8171 8.50311 20.1734 7.21704ZM8.0582 17.1179C7.61417 17.4143 7.46725 17.9992 7.71843 18.4703L8.70807 20.115C8.81378 20.2905 8.75715 20.5186 8.58159 20.6243C8.40602 20.73 8.17801 20.6733 8.0723 20.4978L7.06931 18.8286C6.76617 18.2422 6.80158 17.5381 7.16204 16.9851C7.20248 16.9244 7.22415 16.8532 7.22436 16.7803V14.643C7.22436 14.0285 6.72614 13.5302 6.11157 13.5302C5.49699 13.5302 4.99878 14.0285 4.99878 14.643V18.4792C4.99861 19.2374 5.25659 19.9732 5.73025 20.5653L7.70656 23.0349C7.77683 23.1229 7.88328 23.1742 7.99589 23.1744H10.9336C11.1385 23.1744 11.3046 23.0083 11.3046 22.8035V20.5705C11.3052 19.9103 11.1098 19.2648 10.743 18.7158C10.5482 18.513 10.3721 18.3248 10.2109 18.1525L10.2109 18.1524C9.21338 17.0864 8.78753 16.6312 8.0582 17.1179ZM20.5779 14.643C20.5779 14.0285 21.0761 13.5302 21.6907 13.5302C22.3053 13.5302 22.8035 14.0285 22.8035 14.643V18.4792C22.8036 19.2374 22.5457 19.9732 22.072 20.5653L20.0957 23.0349C20.0254 23.1229 19.919 23.1742 19.8064 23.1744H16.8686C16.6637 23.1744 16.4977 23.0083 16.4977 22.8035V20.5727C16.497 19.9125 16.6925 19.267 17.0593 18.7181C17.2535 18.5155 17.4291 18.3275 17.59 18.1554C18.5885 17.0868 19.0144 16.631 19.744 17.1179C20.1881 17.4143 20.335 17.9992 20.0838 18.4703L19.0942 20.115C19.0258 20.2285 19.0232 20.37 19.0874 20.486C19.1515 20.602 19.2727 20.6749 19.4053 20.6774C19.5378 20.6798 19.6616 20.6113 19.7299 20.4978L20.7329 18.8286C21.0361 18.2422 21.0007 17.5381 20.6402 16.9851C20.5998 16.9244 20.5781 16.8532 20.5779 16.7803V14.643Z" fill="black"/>
<mask id="mask0_6_317" style="mask-type:alpha" maskUnits="userSpaceOnUse" x="4" y="5" width="19" height="19">
<path fill-rule="evenodd" clip-rule="evenodd" d="M20.1734 7.21704C19.6939 6.25577 18.7811 5.58398 17.7207 5.41196C16.6603 5.23993 15.582 5.58869 14.8231 6.34907L14.1636 7.00858C14.0188 7.15338 13.784 7.15338 13.6391 7.00858L12.9789 6.34907C11.6743 5.04453 9.55927 5.04453 8.25473 6.34907C6.95019 7.6536 6.95019 9.76868 8.25473 11.0732L13.2178 16.2507C13.3963 16.4368 13.6431 16.5421 13.901 16.5421C14.159 16.5421 14.4057 16.4368 14.5843 16.2507L19.5473 11.0732C20.5649 10.0569 20.8171 8.50311 20.1734 7.21704ZM8.0582 17.1179C7.61417 17.4143 7.46725 17.9992 7.71843 18.4703L8.70807 20.115C8.81378 20.2905 8.75715 20.5186 8.58159 20.6243C8.40602 20.73 8.17801 20.6733 8.0723 20.4978L7.06931 18.8286C6.76617 18.2422 6.80158 17.5381 7.16204 16.9851C7.20248 16.9244 7.22415 16.8532 7.22436 16.7803V14.643C7.22436 14.0285 6.72614 13.5302 6.11157 13.5302C5.49699 13.5302 4.99878 14.0285 4.99878 14.643V18.4792C4.99861 19.2374 5.25659 19.9732 5.73025 20.5653L7.70656 23.0349C7.77683 23.1229 7.88328 23.1742 7.99589 23.1744H10.9336C11.1385 23.1744 11.3046 23.0083 11.3046 22.8035V20.5705C11.3052 19.9103 11.1098 19.2648 10.743 18.7158C10.5482 18.513 10.3721 18.3248 10.2109 18.1525L10.2109 18.1524C9.21338 17.0864 8.78753 16.6312 8.0582 17.1179ZM20.5779 14.643C20.5779 14.0285 21.0761 13.5302 21.6907 13.5302C22.3053 13.5302 22.8035 14.0285 22.8035 14.643V18.4792C22.8036 19.2374 22.5457 19.9732 22.072 20.5653L20.0957 23.0349C20.0254 23.1229 19.919 23.1742 19.8064 23.1744H16.8686C16.6637 23.1744 16.4977 23.0083 16.4977 22.8035V20.5727C16.497 19.9125 16.6925 19.267 17.0593 18.7181C17.2535 18.5155 17.4291 18.3275 17.59 18.1554C18.5885 17.0868 19.0144 16.631 19.744 17.1179C20.1881 17.4143 20.335 17.9992 20.0838 18.4703L19.0942 20.115C19.0258 20.2285 19.0232 20.37 19.0874 20.486C19.1515 20.602 19.2727 20.6749 19.4053 20.6774C19.5378 20.6798 19.6616 20.6113 19.7299 20.4978L20.7329 18.8286C21.0361 18.2422 21.0007 17.5381 20.6402 16.9851C20.5998 16.9244 20.5781 16.8532 20.5779 16.7803V14.643Z" fill="white"/>
</mask>
<g mask="url(#mask0_6_317)">
</g>
</svg>
